<svg width="164" height="30" viewBox="0 0 164 30" fill="none" xmlns="http://www.w3.org/2000/svg">
<g clip-path="url(#clip0)">
<path d="M141.745 2.88889C141.778 3.03889 141.795 3.19444 141.795 3.35C141.795 3.46111 141.783 3.57222 141.767 3.68333C141.667 4.28889 141.306 4.80555 140.806 5.11666C140.722 5.15555 140.639 5.19444 140.556 5.22222C140.222 5.32778 139.817 5.17777 139.772 4.79444C139.745 4.53889 139.872 4.27778 140.039 4.09444C140.045 4.08889 140.045 4.08889 140.05 4.08333C140.111 4.01111 140.167 3.93889 140.217 3.87778C140.361 3.72222 140.483 3.54444 140.583 3.35555C140.722 3.11111 140.795 2.88889 140.833 2.60555C140.85 2.49444 140.861 2.37778 140.861 2.26111C140.861 2.25 140.861 2.23333 140.861 2.22222C140.861 2 140.833 1.78333 140.778 1.57778C140.595 0.888886 140.117 0.32222 139.489 0.0111084C139.489 0.0333306 139.489 0.0611084 139.489 0.0833306C139.489 0.555553 139.361 0.999997 139.133 1.37778C139.095 1.44444 139.05 1.51666 139 1.57778C138.822 1.79444 138.622 1.96666 138.439 2.13333C138.417 2.15555 138.389 2.17778 138.367 2.2C138.306 2.25555 138.022 2.5 137.895 2.61111C137.872 2.62778 137.85 2.65 137.828 2.66666L137.822 2.67222C137.8 2.69444 137.772 2.71111 137.75 2.73333C137.333 3.10555 137.028 3.60555 136.889 4.17222C136.833 4.39444 136.806 4.62222 136.806 4.86111C136.806 6.11111 137.606 7.16666 138.717 7.56111C138.967 7.65 139.233 7.70555 139.506 7.71666C139.511 7.71666 139.517 7.71666 139.522 7.71666C139.567 7.71666 139.611 7.72222 139.65 7.72222C139.656 7.72222 139.667 7.72222 139.672 7.72222C139.767 7.72222 139.856 7.71666 139.945 7.70555H139.95C139.995 7.7 140.039 7.69444 140.078 7.68889C141.456 7.48333 142.511 6.29444 142.511 4.86111C142.522 4.08889 142.228 3.4 141.745 2.88889Z" fill="url(#paint0_linear)"/>
<path d="M137.75 2.72222C137.333 3.09444 137.022 3.59444 136.883 4.15556C137.028 3.59444 137.333 3.1 137.75 2.72222Z" fill="url(#paint1_linear)"/>
<path d="M137.75 2.72222C137.333 3.09444 137.022 3.59444 136.883 4.15556C137.028 3.59444 137.333 3.1 137.75 2.72222Z" fill="url(#paint2_linear)"/>
<path d="M137.822 2.66112C137.8 2.67779 137.778 2.70001 137.756 2.71667C137.756 2.71667 137.756 2.71668 137.756 2.72223C137.772 2.70001 137.8 2.68334 137.822 2.66112Z" fill="url(#paint3_linear)"/>
<path d="M137.822 2.66112C137.8 2.67779 137.778 2.70001 137.756 2.71667C137.756 2.71667 137.756 2.71668 137.756 2.72223C137.772 2.70001 137.8 2.68334 137.822 2.66112Z" fill="url(#paint4_linear)"/>
<path d="M137.822 2.66112C137.8 2.67779 137.778 2.70001 137.756 2.71667C137.756 2.71667 137.756 2.71668 137.756 2.72223C137.772 2.70001 137.8 2.68334 137.822 2.66112Z" fill="url(#paint5_linear)"/>
<path d="M137.828 2.65551C137.845 2.63884 137.867 2.62218 137.889 2.60551C137.861 2.62773 137.833 2.64995 137.828 2.65551Z" fill="url(#paint6_linear)"/>
<path d="M137.828 2.65551C137.845 2.63884 137.867 2.62218 137.889 2.60551C137.861 2.62773 137.833 2.64995 137.828 2.65551Z" fill="url(#paint7_linear)"/>
<path d="M137.828 2.65551C137.845 2.63884 137.867 2.62218 137.889 2.60551C137.861 2.62773 137.833 2.64995 137.828 2.65551Z" fill="url(#paint8_linear)"/>
<path d="M137.828 2.65551C137.845 2.63884 137.867 2.62218 137.889 2.60551C137.861 2.62773 137.833 2.64995 137.828 2.65551Z" fill="url(#paint9_linear)"/>
<path d="M142.811 28.8556H136.522V9.68889H142.811V28.8556Z" fill="#2C0264"/>
<path d="M6.28889 12.0111C7.40555 9.9 8.97778 8.95 11.4611 8.95C13.9056 8.95 15.8056 10.0278 16.7167 12.0111C18 9.9 19.7389 8.95 22.3444 8.95C24.1667 8.95 25.7778 9.52778 26.9 10.6444C28.1444 11.8889 28.5944 13.2944 28.5944 16.1889V28.8556H22.3111V17.3111C22.3111 15.3667 21.4 14.1667 19.8667 14.1667C18.3333 14.1667 17.4222 15.3667 17.4222 17.3111V28.8611H11.1333V17.5167C11.1333 15.4056 10.2222 14.1611 8.65 14.1611C7.90555 14.1611 7.2 14.4944 6.78889 15.0722C6.41667 15.65 6.29444 16.1889 6.29444 17.5167V28.8556H0V9.68889H6.28889V12.0111Z" fill="#2C0264"/>
<path d="M46.8555 9.69445H53.15V28.8611H46.8555V26.7111C45.1167 28.7 43.0889 29.6111 40.3556 29.6111C34.8944 29.6111 30.9611 25.4333 30.9611 19.5556C30.9611 13.4278 35.1444 8.96111 40.8944 8.96111C43.3389 8.96111 44.9944 9.75 46.8555 11.7778V9.69445ZM37.6667 19.4222C37.6667 22.3611 39.6556 24.6389 42.2222 24.6389C44.8278 24.6389 46.9389 22.2389 46.9389 19.3389C46.9389 16.2778 44.9944 14.1667 42.2611 14.1667C39.5722 14.1611 37.6667 16.3556 37.6667 19.4222Z" fill="#2C0264"/>
<path d="M62.7889 22.4C62.7889 23.3111 63.1222 23.5611 64.3222 23.6444H64.9833V28.8611H60.1389C57.45 28.7778 56.4556 27.6611 56.4944 24.8889V4.85H62.7889V9.56667H64.9833V14.7833H62.7889V22.4Z" fill="#2C0264"/>
<path d="M84.5333 26.7444C82.2556 28.7333 79.9389 29.6 77.0389 29.6C74.1833 29.6 71.3667 28.4833 69.3833 26.5778C67.4778 24.8 66.4833 22.2722 66.4833 19.3778C66.4833 13.2944 70.8722 8.94445 76.9556 8.94445C79.8944 8.94445 82.2555 9.93889 84.9444 12.2556L80.7667 16.0222C79.6889 14.9444 78.6167 14.4889 77.25 14.4889C74.7667 14.4889 72.8222 16.5167 72.8222 19.1667C72.8222 21.9389 74.85 24.05 77.5833 24.05C78.7 24.05 79.4889 23.7167 80.7722 22.6833L84.5333 26.7444Z" fill="#2C0264"/>
<path d="M92.8556 11.4722C94.3444 9.73333 95.8778 8.95 97.8222 8.95C99.4778 8.95 101.3 9.65556 102.5 10.7278C103.822 11.9278 104.322 13.4167 104.322 16.3167V28.8611H98.0333V17.35C98.0333 15.4444 97.0389 14.1611 95.5056 14.1611C93.85 14.1611 92.8556 15.3222 92.8556 17.35V28.8556H86.5667V1.25H92.8556V11.4722Z" fill="#2C0264"/>
<path d="M115.939 14.9944C115.939 14.1278 115.15 13.4611 114.117 13.4611C113.25 13.4611 112.628 14 112.628 14.7444C112.628 15.5333 113.206 15.9889 114.822 16.4389C120.206 17.9722 122.15 19.75 122.15 23.1056C122.15 26.9944 119.044 29.6056 114.367 29.6056C109.689 29.6056 106.75 27.1611 106.628 23.15H112.589C112.839 24.5556 113.294 25.0944 114.367 25.0944C115.194 25.0944 115.817 24.5167 115.817 23.7278C115.817 22.8611 115.194 22.4056 112.628 21.5778C108.45 20.2556 106.628 18.3056 106.628 15.2889C106.628 11.4833 109.733 8.95556 114.367 8.95556C118.922 8.95556 121.733 11.3556 121.778 15.3722H115.939V14.9944Z" fill="#2C0264"/>
<path d="M131.133 22.4C131.133 23.3111 131.467 23.5611 132.667 23.6444H133.328V28.8611H128.483C125.794 28.7778 124.8 27.6611 124.839 24.8889V4.85H131.133V9.56667H133.328V14.7833H131.133V22.4Z" fill="#2C0264"/>
<path d="M152.289 28.8556H146V1.25H152.289V16.5222L156.55 9.69445H163.672L158.083 18.8L163.672 28.8556H156.55L152.289 21.2V28.8556Z" fill="#2C0264"/>
</g>
<defs>
<linearGradient id="paint0_linear" x1="137.86" y1="9.3503" x2="137.86" y2="-12.1148" gradientUnits="userSpaceOnUse">
<stop stop-color="#FF1463"/>
<stop offset="1" stop-color="#641FF3"/>
</linearGradient>
<linearGradient id="paint1_linear" x1="137.86" y1="9.3503" x2="137.86" y2="-12.1148" gradientUnits="userSpaceOnUse">
<stop stop-color="#FF1463"/>
<stop offset="1" stop-color="#641FF3"/>
</linearGradient>
<linearGradient id="paint2_linear" x1="137.86" y1="9.3503" x2="137.86" y2="-12.1148" gradientUnits="userSpaceOnUse">
<stop stop-color="#FF1463"/>
<stop offset="1" stop-color="#641FF3"/>
</linearGradient>
<linearGradient id="paint3_linear" x1="137.86" y1="9.3503" x2="137.86" y2="-12.1148" gradientUnits="userSpaceOnUse">
<stop stop-color="#FF1463"/>
<stop offset="1" stop-color="#641FF3"/>
</linearGradient>
<linearGradient id="paint4_linear" x1="137.86" y1="9.3503" x2="137.86" y2="-12.1148" gradientUnits="userSpaceOnUse">
<stop stop-color="#FF1463"/>
<stop offset="1" stop-color="#641FF3"/>
</linearGradient>
<linearGradient id="paint5_linear" x1="137.86" y1="9.3503" x2="137.86" y2="-12.1148" gradientUnits="userSpaceOnUse">
<stop stop-color="#FF1463"/>
<stop offset="1" stop-color="#641FF3"/>
</linearGradient>
<linearGradient id="paint6_linear" x1="137.86" y1="9.3503" x2="137.86" y2="-12.1148" gradientUnits="userSpaceOnUse">
<stop stop-color="#FF1463"/>
<stop offset="1" stop-color="#641FF3"/>
</linearGradient>
<linearGradient id="paint7_linear" x1="137.86" y1="9.3503" x2="137.86" y2="-12.1148" gradientUnits="userSpaceOnUse">
<stop stop-color="#FF1463"/>
<stop offset="1" stop-color="#641FF3"/>
</linearGradient>
<linearGradient id="paint8_linear" x1="137.86" y1="9.3503" x2="137.86" y2="-12.1148" gradientUnits="userSpaceOnUse">
<stop stop-color="#FF1463"/>
<stop offset="1" stop-color="#641FF3"/>
</linearGradient>
<linearGradient id="paint9_linear" x1="137.86" y1="9.3503" x2="137.86" y2="-12.1148" gradientUnits="userSpaceOnUse">
<stop stop-color="#FF1463"/>
<stop offset="1" stop-color="#641FF3"/>
</linearGradient>
<clipPath id="clip0">
<rect width="163.889" height="30" fill="white"/>
</clipPath>
</defs>
</svg>
