<svg width="6" height="8" viewBox="0 0 6 8" fill="none" xmlns="http://www.w3.org/2000/svg">
<path d="M4.93888 2.87778C4.97221 3.02778 4.98888 3.18333 4.98888 3.33889C4.98888 3.45 4.97776 3.56111 4.9611 3.67222C4.8611 4.27778 4.49999 4.79444 3.99999 5.10556C3.91666 5.14444 3.83333 5.18333 3.74999 5.21111C3.41666 5.31667 3.0111 5.16667 2.96666 4.78333C2.93888 4.52778 3.06666 4.26667 3.23333 4.08333C3.23889 4.07778 3.23888 4.07778 3.24444 4.07222C3.30555 4 3.3611 3.92778 3.4111 3.86667C3.55555 3.71111 3.67777 3.53333 3.77777 3.34444C3.91666 3.1 3.98888 2.87778 4.02777 2.59444C4.04444 2.48333 4.05555 2.36667 4.05555 2.25C4.05555 2.23889 4.05555 2.22222 4.05555 2.21111C4.05555 1.98889 4.02777 1.77222 3.97221 1.56667C3.78888 0.877778 3.31111 0.311111 2.68333 0C2.68333 0.0222222 2.68333 0.05 2.68333 0.0722222C2.68333 0.544444 2.55555 0.988889 2.32777 1.36667C2.28889 1.43333 2.24444 1.50556 2.19444 1.56667C2.01666 1.78333 1.81666 1.95556 1.63333 2.12222C1.61111 2.14444 1.58333 2.16667 1.56111 2.18889C1.5 2.24444 1.21667 2.48889 1.08889 2.6C1.06667 2.61667 1.04444 2.63889 1.02222 2.65556L1.01667 2.66111C0.994443 2.68333 0.966663 2.7 0.944441 2.72222C0.527775 3.09444 0.222218 3.59444 0.0833298 4.16111C0.0277743 4.38333 0 4.61111 0 4.85C0 6.1 0.8 7.15556 1.91111 7.55C2.16111 7.63889 2.42777 7.69444 2.69999 7.70556C2.70555 7.70556 2.71111 7.70556 2.71666 7.70556C2.7611 7.70556 2.80555 7.71111 2.84444 7.71111C2.84999 7.71111 2.86111 7.71111 2.86666 7.71111C2.96111 7.71111 3.04999 7.70556 3.13888 7.69444H3.14444C3.18888 7.68889 3.23333 7.68333 3.27222 7.67778C4.64999 7.47222 5.70554 6.28333 5.70554 4.85C5.71665 4.07778 5.42221 3.38889 4.93888 2.87778Z" fill="url(#paint0_linear)"/>
<path d="M0.944381 2.71111C0.527716 3.08334 0.216607 3.58334 0.0777179 4.14445C0.222162 3.58334 0.527716 3.08889 0.944381 2.71111Z" fill="url(#paint1_linear)"/>
<path d="M0.944381 2.71111C0.527716 3.08334 0.216607 3.58334 0.0777179 4.14445C0.222162 3.58334 0.527716 3.08889 0.944381 2.71111Z" fill="url(#paint2_linear)"/>
<path d="M1.01664 2.65001C0.994418 2.66668 0.972198 2.6889 0.949976 2.70557C0.949976 2.70557 0.949976 2.70557 0.949976 2.71112C0.966643 2.6889 0.994418 2.67223 1.01664 2.65001Z" fill="url(#paint3_linear)"/>
<path d="M1.01664 2.65001C0.994418 2.66668 0.972198 2.6889 0.949976 2.70557C0.949976 2.70557 0.949976 2.70557 0.949976 2.71112C0.966643 2.6889 0.994418 2.67223 1.01664 2.65001Z" fill="url(#paint4_linear)"/>
<path d="M1.01664 2.65001C0.994418 2.66668 0.972198 2.6889 0.949976 2.70557C0.949976 2.70557 0.949976 2.70557 0.949976 2.71112C0.966643 2.6889 0.994418 2.67223 1.01664 2.65001Z" fill="url(#paint5_linear)"/>
<path d="M1.02227 2.6444C1.03894 2.62773 1.06116 2.61107 1.08338 2.5944C1.0556 2.61662 1.02782 2.63885 1.02227 2.6444Z" fill="url(#paint6_linear)"/>
<path d="M1.02227 2.6444C1.03894 2.62773 1.06116 2.61107 1.08338 2.5944C1.0556 2.61662 1.02782 2.63885 1.02227 2.6444Z" fill="url(#paint7_linear)"/>
<path d="M1.02227 2.6444C1.03894 2.62773 1.06116 2.61107 1.08338 2.5944C1.0556 2.61662 1.02782 2.63885 1.02227 2.6444Z" fill="url(#paint8_linear)"/>
<path d="M1.02227 2.6444C1.03894 2.62773 1.06116 2.61107 1.08338 2.5944C1.0556 2.61662 1.02782 2.63885 1.02227 2.6444Z" fill="url(#paint9_linear)"/>
<defs>
<linearGradient id="paint0_linear" x1="1.05399" y1="9.33919" x2="1.05399" y2="-12.126" gradientUnits="userSpaceOnUse">
<stop stop-color="#FF1463"/>
<stop offset="1" stop-color="#641FF3"/>
</linearGradient>
<linearGradient id="paint1_linear" x1="1.05399" y1="9.33919" x2="1.05399" y2="-12.126" gradientUnits="userSpaceOnUse">
<stop stop-color="#FF1463"/>
<stop offset="1" stop-color="#641FF3"/>
</linearGradient>
<linearGradient id="paint2_linear" x1="1.05399" y1="9.33919" x2="1.05399" y2="-12.126" gradientUnits="userSpaceOnUse">
<stop stop-color="#FF1463"/>
<stop offset="1" stop-color="#641FF3"/>
</linearGradient>
<linearGradient id="paint3_linear" x1="1.05399" y1="9.33919" x2="1.05399" y2="-12.126" gradientUnits="userSpaceOnUse">
<stop stop-color="#FF1463"/>
<stop offset="1" stop-color="#641FF3"/>
</linearGradient>
<linearGradient id="paint4_linear" x1="1.05399" y1="9.33919" x2="1.05399" y2="-12.126" gradientUnits="userSpaceOnUse">
<stop stop-color="#FF1463"/>
<stop offset="1" stop-color="#641FF3"/>
</linearGradient>
<linearGradient id="paint5_linear" x1="1.05399" y1="9.33919" x2="1.05399" y2="-12.126" gradientUnits="userSpaceOnUse">
<stop stop-color="#FF1463"/>
<stop offset="1" stop-color="#641FF3"/>
</linearGradient>
<linearGradient id="paint6_linear" x1="1.05399" y1="9.33919" x2="1.05399" y2="-12.126" gradientUnits="userSpaceOnUse">
<stop stop-color="#FF1463"/>
<stop offset="1" stop-color="#641FF3"/>
</linearGradient>
<linearGradient id="paint7_linear" x1="1.05399" y1="9.33919" x2="1.05399" y2="-12.126" gradientUnits="userSpaceOnUse">
<stop stop-color="#FF1463"/>
<stop offset="1" stop-color="#641FF3"/>
</linearGradient>
<linearGradient id="paint8_linear" x1="1.05399" y1="9.33919" x2="1.05399" y2="-12.126" gradientUnits="userSpaceOnUse">
<stop stop-color="#FF1463"/>
<stop offset="1" stop-color="#641FF3"/>
</linearGradient>
<linearGradient id="paint9_linear" x1="1.05399" y1="9.33919" x2="1.05399" y2="-12.126" gradientUnits="userSpaceOnUse">
<stop stop-color="#FF1463"/>
<stop offset="1" stop-color="#641FF3"/>
</linearGradient>
</defs>
</svg>
